<svg xmlns="http://www.w3.org/2000/svg" viewBox="0 0 1200 800" fill="none">
  <!-- Background -->
  <rect width="1200" height="800" rx="12" fill="#1A1814"/>

  <!-- Top bar -->
  <rect x="0" y="0" width="1200" height="56" rx="12" fill="#2A2520"/>
  <rect x="24" y="16" width="120" height="24" rx="4" fill="#FF6B35" opacity="0.9"/>
  <text x="48" y="33" font-family="sans-serif" font-size="13" font-weight="600" fill="white">Dashboard</text>
  <circle cx="1140" cy="28" r="12" fill="#3A3530"/>
  <circle cx="1100" cy="28" r="12" fill="#3A3530"/>

  <!-- Sidebar -->
  <rect x="0" y="56" width="220" height="744" fill="#2A2520"/>
  <rect x="16" y="80" width="188" height="36" rx="6" fill="#FF6B35" opacity="0.15"/>
  <rect x="36" y="92" width="100" height="12" rx="2" fill="#FF6B35"/>
  <rect x="16" y="128" width="188" height="36" rx="6" fill="transparent"/>
  <rect x="36" y="140" width="80" height="12" rx="2" fill="#9A958E"/>
  <rect x="16" y="176" width="188" height="36" rx="6" fill="transparent"/>
  <rect x="36" y="188" width="90" height="12" rx="2" fill="#9A958E"/>
  <rect x="16" y="224" width="188" height="36" rx="6" fill="transparent"/>
  <rect x="36" y="236" width="70" height="12" rx="2" fill="#9A958E"/>

  <!-- KPI Cards Row -->
  <!-- Card 1: Ventas -->
  <rect x="244" y="80" width="220" height="120" rx="8" fill="#2A2520"/>
  <rect x="264" y="100" width="60" height="10" rx="2" fill="#9A958E"/>
  <text x="264" y="140" font-family="sans-serif" font-size="32" font-weight="700" fill="#F5F0EB">$142M</text>
  <rect x="264" y="160" width="40" height="16" rx="8" fill="#10b981" opacity="0.2"/>
  <text x="272" y="173" font-family="sans-serif" font-size="11" font-weight="600" fill="#10b981">+12%</text>

  <!-- Card 2: Margen -->
  <rect x="484" y="80" width="220" height="120" rx="8" fill="#2A2520"/>
  <rect x="504" y="100" width="50" height="10" rx="2" fill="#9A958E"/>
  <text x="504" y="140" font-family="sans-serif" font-size="32" font-weight="700" fill="#F5F0EB">34.2%</text>
  <rect x="504" y="160" width="40" height="16" rx="8" fill="#10b981" opacity="0.2"/>
  <text x="512" y="173" font-family="sans-serif" font-size="11" font-weight="600" fill="#10b981">+2.1%</text>

  <!-- Card 3: Clientes -->
  <rect x="724" y="80" width="220" height="120" rx="8" fill="#2A2520"/>
  <rect x="744" y="100" width="55" height="10" rx="2" fill="#9A958E"/>
  <text x="744" y="140" font-family="sans-serif" font-size="32" font-weight="700" fill="#F5F0EB">1,847</text>
  <rect x="744" y="160" width="40" height="16" rx="8" fill="#FF6B35" opacity="0.2"/>
  <text x="754" y="173" font-family="sans-serif" font-size="11" font-weight="600" fill="#FF6B35">-3%</text>

  <!-- Card 4: Flujo Caja -->
  <rect x="964" y="80" width="220" height="120" rx="8" fill="#2A2520"/>
  <rect x="984" y="100" width="70" height="10" rx="2" fill="#9A958E"/>
  <text x="984" y="140" font-family="sans-serif" font-size="32" font-weight="700" fill="#F5F0EB">$28M</text>
  <rect x="984" y="160" width="40" height="16" rx="8" fill="#10b981" opacity="0.2"/>
  <text x="992" y="173" font-family="sans-serif" font-size="11" font-weight="600" fill="#10b981">+8%</text>

  <!-- Main chart area -->
  <rect x="244" y="224" width="460" height="300" rx="8" fill="#2A2520"/>
  <rect x="264" y="244" width="120" height="14" rx="2" fill="#F5F0EB"/>
  <rect x="264" y="266" width="80" height="10" rx="2" fill="#9A958E"/>

  <!-- Line chart -->
  <polyline points="284,480 340,440 396,460 452,400 508,380 564,350 620,320 676,340"
            stroke="#FF6B35" stroke-width="3" fill="none" stroke-linecap="round" stroke-linejoin="round"/>
  <polyline points="284,470 340,460 396,450 452,430 508,420 564,400 620,390 676,380"
            stroke="#A47764" stroke-width="2" fill="none" stroke-linecap="round" stroke-linejoin="round" stroke-dasharray="6 4"/>

  <!-- Chart grid lines -->
  <line x1="284" y1="480" x2="684" y2="480" stroke="#3A3530" stroke-width="1"/>
  <line x1="284" y1="430" x2="684" y2="430" stroke="#3A3530" stroke-width="1"/>
  <line x1="284" y1="380" x2="684" y2="380" stroke="#3A3530" stroke-width="1"/>
  <line x1="284" y1="330" x2="684" y2="330" stroke="#3A3530" stroke-width="1"/>

  <!-- X axis labels -->
  <text x="284" y="500" font-family="sans-serif" font-size="10" fill="#9A958E">Ene</text>
  <text x="340" y="500" font-family="sans-serif" font-size="10" fill="#9A958E">Feb</text>
  <text x="396" y="500" font-family="sans-serif" font-size="10" fill="#9A958E">Mar</text>
  <text x="452" y="500" font-family="sans-serif" font-size="10" fill="#9A958E">Abr</text>
  <text x="508" y="500" font-family="sans-serif" font-size="10" fill="#9A958E">May</text>
  <text x="564" y="500" font-family="sans-serif" font-size="10" fill="#9A958E">Jun</text>
  <text x="620" y="500" font-family="sans-serif" font-size="10" fill="#9A958E">Jul</text>
  <text x="676" y="500" font-family="sans-serif" font-size="10" fill="#9A958E">Ago</text>

  <!-- Bar chart -->
  <rect x="724" y="224" width="460" height="300" rx="8" fill="#2A2520"/>
  <rect x="744" y="244" width="140" height="14" rx="2" fill="#F5F0EB"/>
  <rect x="744" y="266" width="100" height="10" rx="2" fill="#9A958E"/>

  <!-- Bars -->
  <rect x="764" y="340" width="40" height="140" rx="4" fill="#FF6B35" opacity="0.8"/>
  <rect x="824" y="380" width="40" height="100" rx="4" fill="#FF6B35" opacity="0.6"/>
  <rect x="884" y="310" width="40" height="170" rx="4" fill="#FF6B35" opacity="0.9"/>
  <rect x="944" y="360" width="40" height="120" rx="4" fill="#FF6B35" opacity="0.7"/>
  <rect x="1004" y="330" width="40" height="150" rx="4" fill="#FF6B35" opacity="0.85"/>
  <rect x="1064" y="370" width="40" height="110" rx="4" fill="#FF6B35" opacity="0.65"/>

  <!-- Bar labels -->
  <text x="772" y="496" font-family="sans-serif" font-size="10" fill="#9A958E">Prod A</text>
  <text x="832" y="496" font-family="sans-serif" font-size="10" fill="#9A958E">Prod B</text>
  <text x="892" y="496" font-family="sans-serif" font-size="10" fill="#9A958E">Prod C</text>
  <text x="952" y="496" font-family="sans-serif" font-size="10" fill="#9A958E">Prod D</text>
  <text x="1012" y="496" font-family="sans-serif" font-size="10" fill="#9A958E">Prod E</text>
  <text x="1072" y="496" font-family="sans-serif" font-size="10" fill="#9A958E">Prod F</text>

  <!-- Bottom table -->
  <rect x="244" y="548" width="940" height="230" rx="8" fill="#2A2520"/>
  <rect x="264" y="568" width="160" height="14" rx="2" fill="#F5F0EB"/>

  <!-- Table header -->
  <rect x="264" y="598" width="900" height="32" rx="4" fill="#3A3530"/>
  <rect x="284" y="608" width="60" height="12" rx="2" fill="#9A958E"/>
  <rect x="484" y="608" width="50" height="12" rx="2" fill="#9A958E"/>
  <rect x="664" y="608" width="40" height="12" rx="2" fill="#9A958E"/>
  <rect x="844" y="608" width="60" height="12" rx="2" fill="#9A958E"/>
  <rect x="1024" y="608" width="50" height="12" rx="2" fill="#9A958E"/>

  <!-- Table rows -->
  <rect x="284" y="646" width="100" height="10" rx="2" fill="#F5F0EB" opacity="0.7"/>
  <rect x="484" y="646" width="60" height="10" rx="2" fill="#F5F0EB" opacity="0.5"/>
  <rect x="664" y="646" width="40" height="10" rx="2" fill="#10b981"/>
  <rect x="844" y="646" width="70" height="10" rx="2" fill="#F5F0EB" opacity="0.5"/>
  <rect x="1024" y="646" width="50" height="10" rx="2" fill="#F5F0EB" opacity="0.5"/>

  <line x1="264" y1="666" x2="1164" y2="666" stroke="#3A3530" stroke-width="1"/>

  <rect x="284" y="680" width="80" height="10" rx="2" fill="#F5F0EB" opacity="0.7"/>
  <rect x="484" y="680" width="50" height="10" rx="2" fill="#F5F0EB" opacity="0.5"/>
  <rect x="664" y="680" width="45" height="10" rx="2" fill="#FF6B35"/>
  <rect x="844" y="680" width="60" height="10" rx="2" fill="#F5F0EB" opacity="0.5"/>
  <rect x="1024" y="680" width="55" height="10" rx="2" fill="#F5F0EB" opacity="0.5"/>

  <line x1="264" y1="700" x2="1164" y2="700" stroke="#3A3530" stroke-width="1"/>

  <rect x="284" y="714" width="90" height="10" rx="2" fill="#F5F0EB" opacity="0.7"/>
  <rect x="484" y="714" width="55" height="10" rx="2" fill="#F5F0EB" opacity="0.5"/>
  <rect x="664" y="714" width="35" height="10" rx="2" fill="#10b981"/>
  <rect x="844" y="714" width="65" height="10" rx="2" fill="#F5F0EB" opacity="0.5"/>
  <rect x="1024" y="714" width="45" height="10" rx="2" fill="#F5F0EB" opacity="0.5"/>

  <line x1="264" y1="734" x2="1164" y2="734" stroke="#3A3530" stroke-width="1"/>

  <rect x="284" y="748" width="70" height="10" rx="2" fill="#F5F0EB" opacity="0.7"/>
  <rect x="484" y="748" width="45" height="10" rx="2" fill="#F5F0EB" opacity="0.5"/>
  <rect x="664" y="748" width="40" height="10" rx="2" fill="#10b981"/>
  <rect x="844" y="748" width="55" height="10" rx="2" fill="#F5F0EB" opacity="0.5"/>
  <rect x="1024" y="748" width="50" height="10" rx="2" fill="#F5F0EB" opacity="0.5"/>
</svg>
