<svg width="156" height="190" viewBox="0 0 156 190" fill="none" xmlns="http://www.w3.org/2000/svg">
<path d="M106.89 46.71L2.96003 168.88C-3.83997 176.88 1.84003 189.18 12.34 189.18H137.79C141.8 189.18 142.17 183.3 138.19 182.8L61.48 173.07C57.77 172.6 55.6 168.64 57.2 165.26L111.89 49.94C113.39 46.77 109.17 44.04 106.89 46.71Z" fill="#222F62"/>
<path d="M127.52 0.7L135.01 20.94L155.25 28.43C156.18 28.77 156.18 30.09 155.25 30.43L135.01 37.92L127.52 58.16C127.18 59.09 125.86 59.09 125.52 58.16L118.03 37.92L97.79 30.43C96.86 30.09 96.86 28.77 97.79 28.43L118.03 20.94L125.51 0.7C125.85 -0.23 127.17 -0.23 127.51 0.7H127.52Z" fill="#6887DF"/>
</svg>
