<svg width="433" height="620" viewBox="0 0 433 620" fill="none" xmlns="http://www.w3.org/2000/svg">
<path d="M277.774 93.8288L69.9144 338.169C56.3144 354.169 67.6744 378.769 88.6744 378.769H339.574C347.594 378.769 348.334 367.009 340.374 366.009L186.954 346.549C179.534 345.609 175.194 337.689 178.394 330.929L287.774 100.289C290.774 93.9488 282.334 88.4888 277.774 93.8288Z" fill="#222F62"/>
<path d="M319.034 1.80876L334.014 42.2888L374.494 57.2688C376.354 57.9488 376.354 60.5888 374.494 61.2688L334.014 76.2488L319.034 116.729C318.354 118.589 315.714 118.589 315.034 116.729L300.054 76.2488L259.574 61.2688C257.714 60.5888 257.714 57.9488 259.574 57.2688L300.054 42.2888L315.014 1.80876C315.694 -0.0512427 318.334 -0.0512427 319.014 1.80876H319.034Z" fill="#6887DF"/>
<path d="M20.5307 506.033H48.545V517H6.94073V434.149H20.5307V506.033Z" fill="#222F62"/>
<path d="M119.396 451.315V517H105.806V509.251C103.66 511.953 100.839 514.099 97.342 515.689C93.9246 517.199 90.2688 517.954 86.3746 517.954C81.2089 517.954 76.5597 516.881 72.4271 514.735C68.3739 512.589 65.1553 509.41 62.7711 505.198C60.4663 500.986 59.314 495.9 59.314 489.939V451.315H72.7847V487.913C72.7847 493.794 74.255 498.324 77.1955 501.503C80.136 504.602 84.1494 506.152 89.2357 506.152C94.322 506.152 98.3354 504.602 101.276 501.503C104.296 498.324 105.806 493.794 105.806 487.913V451.315H119.396Z" fill="#222F62"/>
<path d="M216.84 450.242C222.006 450.242 226.615 451.315 230.668 453.461C234.801 455.607 238.019 458.786 240.324 462.998C242.708 467.21 243.9 472.296 243.9 478.257V517H230.43V480.283C230.43 474.402 228.959 469.912 226.019 466.813C223.078 463.634 219.065 462.044 213.979 462.044C208.892 462.044 204.839 463.634 201.819 466.813C198.879 469.912 197.409 474.402 197.409 480.283V517H183.938V480.283C183.938 474.402 182.468 469.912 179.527 466.813C176.587 463.634 172.573 462.044 167.487 462.044C162.401 462.044 158.347 463.634 155.327 466.813C152.387 469.912 150.917 474.402 150.917 480.283V517H137.327V451.315H150.917V458.826C153.142 456.123 155.963 454.017 159.381 452.507C162.798 450.997 166.454 450.242 170.348 450.242C175.593 450.242 180.282 451.355 184.415 453.58C188.547 455.806 191.726 459.024 193.951 463.236C195.938 459.263 199.038 456.123 203.25 453.819C207.462 451.434 211.992 450.242 216.84 450.242Z" fill="#222F62"/>
<path d="M268.107 442.613C265.644 442.613 263.578 441.778 261.909 440.11C260.24 438.441 259.405 436.374 259.405 433.911C259.405 431.447 260.24 429.381 261.909 427.712C263.578 426.043 265.644 425.208 268.107 425.208C270.492 425.208 272.518 426.043 274.187 427.712C275.856 429.381 276.691 431.447 276.691 433.911C276.691 436.374 275.856 438.441 274.187 440.11C272.518 441.778 270.492 442.613 268.107 442.613ZM274.783 451.315V517H261.193V451.315H274.783Z" fill="#222F62"/>
<path d="M325.766 450.242C330.932 450.242 335.541 451.315 339.594 453.461C343.727 455.607 346.946 458.786 349.25 462.998C351.555 467.21 352.707 472.296 352.707 478.257V517H339.237V480.283C339.237 474.402 337.767 469.912 334.826 466.813C331.885 463.634 327.872 462.044 322.786 462.044C317.699 462.044 313.646 463.634 310.626 466.813C307.686 469.912 306.216 474.402 306.216 480.283V517H292.626V451.315H306.216V458.826C308.441 456.123 311.262 454.017 314.68 452.507C318.176 450.997 321.872 450.242 325.766 450.242Z" fill="#222F62"/>
<path d="M365.512 483.86C365.512 477.263 366.863 471.422 369.565 466.336C372.347 461.249 376.082 457.316 380.771 454.534C385.54 451.673 390.785 450.242 396.507 450.242C401.673 450.242 406.163 451.276 409.978 453.342C413.872 455.329 416.971 457.832 419.276 460.852V451.315H432.985V517H419.276V507.225C416.971 510.324 413.832 512.907 409.858 514.973C405.885 517.04 401.355 518.073 396.268 518.073C390.626 518.073 385.46 516.642 380.771 513.781C376.082 510.841 372.347 506.788 369.565 501.622C366.863 496.377 365.512 490.456 365.512 483.86ZM419.276 484.098C419.276 479.568 418.322 475.634 416.415 472.296C414.587 468.958 412.163 466.415 409.143 464.667C406.123 462.918 402.865 462.044 399.368 462.044C395.871 462.044 392.613 462.918 389.593 464.667C386.573 466.336 384.109 468.839 382.202 472.177C380.374 475.435 379.46 479.33 379.46 483.86C379.46 488.39 380.374 492.363 382.202 495.781C384.109 499.198 386.573 501.821 389.593 503.648C392.692 505.397 395.951 506.271 399.368 506.271C402.865 506.271 406.123 505.397 409.143 503.648C412.163 501.9 414.587 499.357 416.415 496.019C418.322 492.602 419.276 488.628 419.276 484.098Z" fill="#222F62"/>
<path d="M0.499268 582.357C0.499268 578.529 1.2648 575.174 2.79587 572.292C4.37197 569.365 6.53348 567.114 9.2804 565.538C12.0273 563.962 15.1795 563.174 18.737 563.174C23.2402 563.174 26.9553 564.254 29.8823 566.416C32.8544 568.532 34.8583 571.572 35.894 575.535H27.5857C26.9102 573.688 25.8295 572.247 24.3434 571.212C22.8574 570.176 20.9886 569.658 18.737 569.658C15.5848 569.658 13.063 570.784 11.1717 573.035C9.32544 575.242 8.40229 578.349 8.40229 582.357C8.40229 586.365 9.32544 589.494 11.1717 591.746C13.063 593.998 15.5848 595.123 18.737 595.123C23.1951 595.123 26.1447 593.165 27.5857 589.247H35.894C34.8132 593.029 32.7868 596.047 29.8148 598.298C26.8427 600.505 23.1501 601.608 18.737 601.608C15.1795 601.608 12.0273 600.82 9.2804 599.244C6.53348 597.623 4.37197 595.371 2.79587 592.489C1.2648 589.562 0.499268 586.185 0.499268 582.357Z" fill="#6887DF"/>
<path d="M59.7118 601.608C56.1993 601.608 53.0246 600.82 50.1876 599.244C47.3506 597.623 45.1216 595.371 43.5004 592.489C41.8793 589.562 41.0687 586.185 41.0687 582.357C41.0687 578.574 41.9018 575.219 43.568 572.292C45.2342 569.365 47.5082 567.114 50.3903 565.538C53.2723 563.962 56.492 563.174 60.0495 563.174C63.607 563.174 66.8267 563.962 69.7088 565.538C72.5908 567.114 74.8649 569.365 76.531 572.292C78.1972 575.219 79.0303 578.574 79.0303 582.357C79.0303 586.14 78.1747 589.494 76.4635 592.421C74.7523 595.349 72.4106 597.623 69.4386 599.244C66.5115 600.82 63.2693 601.608 59.7118 601.608ZM59.7118 594.921C61.6932 594.921 63.5394 594.448 65.2506 593.502C67.0069 592.557 68.4254 591.138 69.5061 589.247C70.5869 587.355 71.1273 585.059 71.1273 582.357C71.1273 579.655 70.6094 577.381 69.5737 575.535C68.5379 573.643 67.1645 572.225 65.4533 571.279C63.7421 570.334 61.8958 569.861 59.9144 569.861C57.933 569.861 56.0867 570.334 54.3755 571.279C52.7094 572.225 51.381 573.643 50.3903 575.535C49.3996 577.381 48.9042 579.655 48.9042 582.357C48.9042 586.365 49.9174 589.472 51.9438 591.678C54.0153 593.84 56.6046 594.921 59.7118 594.921Z" fill="#6887DF"/>
<path d="M105.421 563.174C108.348 563.174 110.96 563.781 113.256 564.997C115.598 566.213 117.422 568.014 118.727 570.401C120.033 572.788 120.686 575.67 120.686 579.047V601H113.053V580.195C113.053 576.863 112.22 574.319 110.554 572.563C108.888 570.761 106.614 569.861 103.732 569.861C100.85 569.861 98.5533 570.761 96.8421 572.563C95.176 574.319 94.3429 576.863 94.3429 580.195V601H86.6425V563.781H94.3429V568.037C95.6038 566.506 97.2024 565.313 99.1388 564.457C101.12 563.601 103.214 563.174 105.421 563.174Z" fill="#6887DF"/>
<path d="M144.018 601.608C141.091 601.608 138.457 601.09 136.115 600.054C133.818 598.974 131.995 597.533 130.644 595.731C129.293 593.885 128.572 591.836 128.482 589.585H136.453C136.588 591.161 137.331 592.489 138.682 593.57C140.078 594.606 141.812 595.123 143.883 595.123C146.044 595.123 147.711 594.718 148.881 593.908C150.097 593.052 150.705 591.971 150.705 590.665C150.705 589.269 150.03 588.234 148.679 587.558C147.373 586.883 145.279 586.14 142.397 585.329C139.605 584.564 137.331 583.82 135.575 583.1C133.818 582.379 132.287 581.276 130.981 579.79C129.721 578.304 129.09 576.345 129.09 573.914C129.09 571.932 129.676 570.131 130.846 568.51C132.017 566.844 133.683 565.538 135.845 564.592C138.051 563.646 140.573 563.174 143.41 563.174C147.643 563.174 151.043 564.254 153.61 566.416C156.222 568.532 157.618 571.437 157.798 575.129H150.097C149.962 573.463 149.287 572.135 148.071 571.144C146.855 570.153 145.211 569.658 143.14 569.658C141.114 569.658 139.56 570.041 138.479 570.806C137.398 571.572 136.858 572.585 136.858 573.846C136.858 574.837 137.218 575.67 137.939 576.345C138.659 577.021 139.537 577.561 140.573 577.966C141.609 578.327 143.14 578.799 145.166 579.385C147.868 580.105 150.075 580.848 151.786 581.614C153.542 582.334 155.051 583.415 156.312 584.856C157.573 586.297 158.225 588.211 158.271 590.598C158.271 592.714 157.685 594.606 156.514 596.272C155.343 597.938 153.677 599.244 151.516 600.189C149.399 601.135 146.9 601.608 144.018 601.608Z" fill="#6887DF"/>
<path d="M200.297 563.781V601H192.597V596.609C191.381 598.14 189.782 599.356 187.801 600.257C185.864 601.113 183.793 601.54 181.586 601.54C178.659 601.54 176.025 600.932 173.683 599.717C171.387 598.501 169.563 596.699 168.212 594.313C166.906 591.926 166.253 589.044 166.253 585.667V563.781H173.886V584.518C173.886 587.851 174.719 590.418 176.385 592.219C178.051 593.975 180.326 594.853 183.208 594.853C186.09 594.853 188.364 593.975 190.03 592.219C191.741 590.418 192.597 587.851 192.597 584.518V563.781H200.297Z" fill="#6887DF"/>
<path d="M218.157 551.015V601H210.457V551.015H218.157Z" fill="#6887DF"/>
<path d="M237.251 570.063V590.665C237.251 592.061 237.566 593.074 238.197 593.705C238.872 594.29 239.998 594.583 241.574 594.583H246.302V601H240.223C236.756 601 234.099 600.189 232.253 598.568C230.406 596.947 229.483 594.313 229.483 590.665V570.063H225.093V563.781H229.483V554.528H237.251V563.781H246.302V570.063H237.251Z" fill="#6887DF"/>
<path d="M257.317 558.851C255.921 558.851 254.751 558.378 253.805 557.432C252.859 556.486 252.386 555.316 252.386 553.92C252.386 552.524 252.859 551.353 253.805 550.407C254.751 549.461 255.921 548.989 257.317 548.989C258.668 548.989 259.817 549.461 260.762 550.407C261.708 551.353 262.181 552.524 262.181 553.92C262.181 555.316 261.708 556.486 260.762 557.432C259.817 558.378 258.668 558.851 257.317 558.851ZM261.1 563.781V601H253.4V563.781H261.1Z" fill="#6887DF"/>
<path d="M289.988 563.174C292.915 563.174 295.527 563.781 297.824 564.997C300.165 566.213 301.989 568.014 303.295 570.401C304.601 572.788 305.254 575.67 305.254 579.047V601H297.621V580.195C297.621 576.863 296.788 574.319 295.122 572.563C293.456 570.761 291.181 569.861 288.299 569.861C285.417 569.861 283.121 570.761 281.41 572.563C279.743 574.319 278.91 576.863 278.91 580.195V601H271.21V563.781H278.91V568.037C280.171 566.506 281.77 565.313 283.706 564.457C285.688 563.601 287.782 563.174 289.988 563.174Z" fill="#6887DF"/>
<path d="M330.072 563.174C332.954 563.174 335.498 563.759 337.704 564.93C339.956 566.056 341.712 567.474 342.973 569.185V563.781H350.741V601.608C350.741 605.03 350.02 608.07 348.579 610.727C347.138 613.429 345.044 615.545 342.298 617.076C339.596 618.607 336.353 619.373 332.571 619.373C327.527 619.373 323.339 618.179 320.007 615.793C316.675 613.451 314.783 610.254 314.333 606.201H321.966C322.551 608.137 323.79 609.691 325.681 610.862C327.617 612.078 329.914 612.686 332.571 612.686C335.678 612.686 338.177 611.74 340.069 609.849C342.005 607.957 342.973 605.21 342.973 601.608V595.394C341.667 597.15 339.888 598.636 337.637 599.852C335.43 601.023 332.909 601.608 330.072 601.608C326.829 601.608 323.857 600.797 321.155 599.176C318.498 597.51 316.382 595.213 314.806 592.286C313.275 589.314 312.509 585.959 312.509 582.222C312.509 578.484 313.275 575.174 314.806 572.292C316.382 569.41 318.498 567.181 321.155 565.605C323.857 563.984 326.829 563.174 330.072 563.174ZM342.973 582.357C342.973 579.79 342.433 577.561 341.352 575.67C340.316 573.778 338.943 572.337 337.232 571.347C335.52 570.356 333.674 569.861 331.693 569.861C329.711 569.861 327.865 570.356 326.154 571.347C324.443 572.292 323.047 573.711 321.966 575.602C320.93 577.449 320.412 579.655 320.412 582.222C320.412 584.789 320.93 587.04 321.966 588.977C323.047 590.913 324.443 592.399 326.154 593.435C327.91 594.425 329.756 594.921 331.693 594.921C333.674 594.921 335.52 594.425 337.232 593.435C338.943 592.444 340.316 591.003 341.352 589.112C342.433 587.175 342.973 584.924 342.973 582.357Z" fill="#6887DF"/>
<path d="M363.962 601.473C362.566 601.473 361.395 601 360.45 600.054C359.504 599.109 359.031 597.938 359.031 596.542C359.031 595.146 359.504 593.975 360.45 593.029C361.395 592.084 362.566 591.611 363.962 591.611C365.313 591.611 366.462 592.084 367.407 593.029C368.353 593.975 368.826 595.146 368.826 596.542C368.826 597.938 368.353 599.109 367.407 600.054C366.462 601 365.313 601.473 363.962 601.473Z" fill="#6887DF"/>
<path d="M374.581 582.222C374.581 578.484 375.347 575.174 376.878 572.292C378.454 569.41 380.571 567.181 383.227 565.605C385.929 563.984 388.901 563.174 392.144 563.174C395.071 563.174 397.615 563.759 399.777 564.93C401.983 566.056 403.739 567.474 405.045 569.185V563.781H412.813V601H405.045V595.461C403.739 597.217 401.961 598.681 399.709 599.852C397.457 601.023 394.891 601.608 392.009 601.608C388.811 601.608 385.884 600.797 383.227 599.176C380.571 597.51 378.454 595.213 376.878 592.286C375.347 589.314 374.581 585.959 374.581 582.222ZM405.045 582.357C405.045 579.79 404.505 577.561 403.424 575.67C402.388 573.778 401.015 572.337 399.304 571.347C397.593 570.356 395.746 569.861 393.765 569.861C391.783 569.861 389.937 570.356 388.226 571.347C386.515 572.292 385.119 573.711 384.038 575.602C383.002 577.449 382.484 579.655 382.484 582.222C382.484 584.789 383.002 587.04 384.038 588.977C385.119 590.913 386.515 592.399 388.226 593.435C389.982 594.425 391.829 594.921 393.765 594.921C395.746 594.921 397.593 594.425 399.304 593.435C401.015 592.444 402.388 591.003 403.424 589.112C404.505 587.175 405.045 584.924 405.045 582.357Z" fill="#6887DF"/>
<path d="M426.845 558.851C425.449 558.851 424.278 558.378 423.333 557.432C422.387 556.486 421.914 555.316 421.914 553.92C421.914 552.524 422.387 551.353 423.333 550.407C424.278 549.461 425.449 548.989 426.845 548.989C428.196 548.989 429.344 549.461 430.29 550.407C431.236 551.353 431.708 552.524 431.708 553.92C431.708 555.316 431.236 556.486 430.29 557.432C429.344 558.378 428.196 558.851 426.845 558.851ZM430.628 563.781V601H422.927V563.781H430.628Z" fill="#6887DF"/>
</svg>
