<svg width="524" height="191" viewBox="0 0 524 191" fill="none" xmlns="http://www.w3.org/2000/svg">
<path d="M209.547 123.544V189.229H195.957V181.48C193.811 184.182 190.99 186.328 187.493 187.917C184.075 189.427 180.42 190.182 176.525 190.182C171.36 190.182 166.71 189.11 162.578 186.964C158.525 184.818 155.306 181.639 152.922 177.427C150.617 173.215 149.465 168.129 149.465 162.168V123.544H162.935V160.141C162.935 166.023 164.406 170.552 167.346 173.731C170.287 176.831 174.3 178.381 179.386 178.381C184.473 178.381 188.486 176.831 191.427 173.731C194.447 170.552 195.957 166.023 195.957 160.141V123.544H209.547Z" fill="#222F62"/>
<path d="M306.99 122.471C312.156 122.471 316.766 123.544 320.819 125.69C324.951 127.836 328.17 131.014 330.475 135.227C332.859 139.439 334.051 144.525 334.051 150.485V189.229H320.58V152.512C320.58 146.631 319.11 142.141 316.17 139.041C313.229 135.862 309.216 134.273 304.129 134.273C299.043 134.273 294.99 135.862 291.97 139.041C289.03 142.141 287.559 146.631 287.559 152.512V189.229H274.089V152.512C274.089 146.631 272.618 142.141 269.678 139.041C266.737 135.862 262.724 134.273 257.638 134.273C252.551 134.273 248.498 135.862 245.478 139.041C242.538 142.141 241.067 146.631 241.067 152.512V189.229H227.477V123.544H241.067V131.054C243.293 128.352 246.114 126.246 249.531 124.736C252.949 123.226 256.604 122.471 260.499 122.471C265.744 122.471 270.433 123.584 274.565 125.809C278.698 128.034 281.877 131.253 284.102 135.465C286.089 131.491 289.188 128.352 293.401 126.047C297.613 123.663 302.143 122.471 306.99 122.471Z" fill="#222F62"/>
<path d="M358.258 114.842C355.795 114.842 353.728 114.007 352.059 112.338C350.39 110.669 349.556 108.603 349.556 106.139C349.556 103.676 350.39 101.609 352.059 99.9404C353.728 98.2715 355.795 97.437 358.258 97.437C360.642 97.437 362.669 98.2715 364.338 99.9404C366.007 101.609 366.841 103.676 366.841 106.139C366.841 108.603 366.007 110.669 364.338 112.338C362.669 114.007 360.642 114.842 358.258 114.842ZM364.934 123.544V189.229H351.344V123.544H364.934Z" fill="#222F62"/>
<path d="M415.917 122.471C421.083 122.471 425.692 123.544 429.745 125.69C433.878 127.836 437.096 131.014 439.401 135.227C441.706 139.439 442.858 144.525 442.858 150.485V189.229H429.387V152.512C429.387 146.631 427.917 142.141 424.977 139.041C422.036 135.862 418.023 134.273 412.937 134.273C407.85 134.273 403.797 135.862 400.777 139.041C397.837 142.141 396.366 146.631 396.366 152.512V189.229H382.776V123.544H396.366V131.054C398.592 128.352 401.413 126.246 404.83 124.736C408.327 123.226 412.023 122.471 415.917 122.471Z" fill="#222F62"/>
<path d="M455.663 156.088C455.663 149.492 457.014 143.651 459.716 138.564C462.498 133.478 466.233 129.544 470.922 126.763C475.69 123.902 480.936 122.471 486.658 122.471C491.823 122.471 496.314 123.504 500.128 125.571C504.023 127.557 507.122 130.061 509.427 133.081V123.544H523.136V189.229H509.427V179.453C507.122 182.553 503.983 185.136 500.009 187.202C496.036 189.268 491.506 190.302 486.419 190.302C480.777 190.302 475.611 188.871 470.922 186.01C466.233 183.07 462.498 179.016 459.716 173.851C457.014 168.605 455.663 162.685 455.663 156.088ZM509.427 156.327C509.427 151.797 508.473 147.863 506.566 144.525C504.738 141.187 502.314 138.644 499.294 136.896C496.274 135.147 493.016 134.273 489.519 134.273C486.022 134.273 482.763 135.147 479.743 136.896C476.723 138.564 474.26 141.068 472.352 144.406C470.525 147.664 469.611 151.558 469.611 156.088C469.611 160.618 470.525 164.592 472.352 168.009C474.26 171.427 476.723 174.049 479.743 175.877C482.843 177.626 486.101 178.5 489.519 178.5C493.016 178.5 496.274 177.626 499.294 175.877C502.314 174.129 504.738 171.586 506.566 168.248C508.473 164.83 509.427 160.857 509.427 156.327Z" fill="#222F62"/>
<path d="M106.887 46.9662L2.95722 169.136C-3.84278 177.136 1.83722 189.436 12.3372 189.436H137.787C141.797 189.436 142.167 183.556 138.187 183.056L61.4772 173.326C57.7672 172.856 55.5972 168.896 57.1972 165.516L111.887 50.1962C113.387 47.0262 109.167 44.2962 106.887 46.9662Z" fill="#222F62"/>
<path d="M127.517 0.956228L135.007 21.1962L155.247 28.6862C156.177 29.0262 156.177 30.3462 155.247 30.6862L135.007 38.1762L127.517 58.4162C127.177 59.3462 125.857 59.3462 125.517 58.4162L118.027 38.1762L97.7872 30.6862C96.8572 30.3462 96.8572 29.0262 97.7872 28.6862L118.027 21.1962L125.507 0.956228C125.847 0.026228 127.167 0.026228 127.507 0.956228H127.517Z" fill="#6887DF"/>
</svg>
