<svg width="1313" height="191" viewBox="0 0 1313 191" fill="none" xmlns="http://www.w3.org/2000/svg">
<path d="M209.547 123.285V188.97H195.957V181.221C193.811 183.923 190.99 186.069 187.493 187.659C184.075 189.169 180.42 189.924 176.525 189.924C171.36 189.924 166.71 188.851 162.578 186.705C158.525 184.559 155.306 181.38 152.922 177.168C150.617 172.956 149.465 167.87 149.465 161.909V123.285H162.935V159.883C162.935 165.764 164.406 170.294 167.346 173.473C170.287 176.572 174.3 178.122 179.386 178.122C184.473 178.122 188.486 176.572 191.427 173.473C194.447 170.294 195.957 165.764 195.957 159.883V123.285H209.547Z" fill="#222F62"/>
<path d="M306.99 122.212C312.156 122.212 316.766 123.285 320.819 125.431C324.951 127.577 328.17 130.756 330.475 134.968C332.859 139.18 334.051 144.266 334.051 150.227V188.97H320.58V152.253C320.58 146.372 319.11 141.882 316.17 138.783C313.229 135.604 309.216 134.014 304.129 134.014C299.043 134.014 294.99 135.604 291.97 138.783C289.029 141.882 287.559 146.372 287.559 152.253V188.97H274.089V152.253C274.089 146.372 272.618 141.882 269.678 138.783C266.737 135.604 262.724 134.014 257.638 134.014C252.551 134.014 248.498 135.604 245.478 138.783C242.538 141.882 241.067 146.372 241.067 152.253V188.97H227.477V123.285H241.067V130.796C243.293 128.093 246.114 125.987 249.531 124.477C252.949 122.967 256.604 122.212 260.499 122.212C265.744 122.212 270.433 123.325 274.565 125.55C278.698 127.776 281.877 130.994 284.102 135.206C286.089 131.233 289.188 128.093 293.401 125.789C297.613 123.404 302.143 122.212 306.99 122.212Z" fill="#222F62"/>
<path d="M358.258 114.583C355.795 114.583 353.728 113.748 352.059 112.08C350.39 110.411 349.556 108.344 349.556 105.881C349.556 103.417 350.39 101.351 352.059 99.6817C353.728 98.0128 355.795 97.1783 358.258 97.1783C360.642 97.1783 362.669 98.0128 364.338 99.6817C366.007 101.351 366.841 103.417 366.841 105.881C366.841 108.344 366.007 110.411 364.338 112.08C362.669 113.748 360.642 114.583 358.258 114.583ZM364.934 123.285V188.97H351.344V123.285H364.934Z" fill="#222F62"/>
<path d="M415.917 122.212C421.082 122.212 425.692 123.285 429.745 125.431C433.878 127.577 437.096 130.756 439.401 134.968C441.706 139.18 442.858 144.266 442.858 150.227V188.97H429.387V152.253C429.387 146.372 427.917 141.882 424.977 138.783C422.036 135.604 418.023 134.014 412.936 134.014C407.85 134.014 403.797 135.604 400.777 138.783C397.837 141.882 396.366 146.372 396.366 152.253V188.97H382.776V123.285H396.366V130.796C398.592 128.093 401.413 125.987 404.83 124.477C408.327 122.967 412.023 122.212 415.917 122.212Z" fill="#222F62"/>
<path d="M455.663 155.83C455.663 149.233 457.014 143.392 459.716 138.306C462.498 133.219 466.233 129.286 470.922 126.504C475.69 123.643 480.936 122.212 486.658 122.212C491.823 122.212 496.314 123.246 500.128 125.312C504.023 127.299 507.122 129.802 509.427 132.822V123.285H523.136V188.97H509.427V179.195C507.122 182.294 503.983 184.877 500.009 186.943C496.035 189.01 491.506 190.043 486.419 190.043C480.777 190.043 475.611 188.612 470.922 185.751C466.233 182.811 462.498 178.758 459.716 173.592C457.014 168.347 455.663 162.426 455.663 155.83ZM509.427 156.068C509.427 151.538 508.473 147.604 506.566 144.266C504.738 140.928 502.314 138.385 499.294 136.637C496.274 134.888 493.016 134.014 489.519 134.014C486.022 134.014 482.763 134.888 479.743 136.637C476.723 138.306 474.26 140.809 472.352 144.147C470.525 147.405 469.611 151.3 469.611 155.83C469.611 160.36 470.525 164.333 472.352 167.751C474.26 171.168 476.723 173.791 479.743 175.618C482.843 177.367 486.101 178.241 489.519 178.241C493.016 178.241 496.274 177.367 499.294 175.618C502.314 173.87 504.738 171.327 506.566 167.989C508.473 164.572 509.427 160.598 509.427 156.068Z" fill="#222F62"/>
<path d="M554.492 156.059C554.492 149.64 555.971 143.883 558.929 138.786C561.949 133.689 566.008 129.724 571.105 126.893C576.264 123.998 581.896 122.551 588 122.551C594.985 122.551 601.183 124.281 606.594 127.742C612.069 131.14 616.033 135.986 618.487 142.278H605.556C603.857 138.817 601.497 136.237 598.477 134.538C595.457 132.839 591.964 131.99 588 131.99C583.658 131.99 579.788 132.965 576.39 134.916C572.992 136.866 570.318 139.667 568.367 143.316C566.48 146.966 565.536 151.213 565.536 156.059C565.536 160.904 566.48 165.151 568.367 168.801C570.318 172.451 572.992 175.282 576.39 177.296C579.788 179.247 583.658 180.222 588 180.222C591.964 180.222 595.457 179.372 598.477 177.673C601.497 175.974 603.857 173.395 605.556 169.934H618.487C616.033 176.226 612.069 181.071 606.594 184.469C601.183 187.867 594.985 189.566 588 189.566C581.833 189.566 576.201 188.15 571.105 185.319C566.008 182.424 561.949 178.429 558.929 173.332C555.971 168.235 554.492 162.477 554.492 156.059Z" fill="#6887DF"/>
<path d="M665.722 189.661C659.619 189.661 653.987 188.245 648.827 185.413C643.73 182.519 639.671 178.523 636.651 173.426C633.693 168.266 632.215 162.477 632.215 156.059C632.215 149.64 633.693 143.883 636.651 138.786C639.671 133.689 643.73 129.724 648.827 126.893C653.987 123.998 659.619 122.551 665.722 122.551C671.889 122.551 677.521 123.998 682.618 126.893C687.778 129.724 691.836 133.689 694.794 138.786C697.751 143.883 699.23 149.64 699.23 156.059C699.23 162.477 697.751 168.266 694.794 173.426C691.836 178.523 687.778 182.519 682.618 185.413C677.521 188.245 671.889 189.661 665.722 189.661ZM665.722 180.316C670.064 180.316 673.934 179.341 677.332 177.39C680.73 175.377 683.373 172.545 685.261 168.895C687.211 165.183 688.187 160.904 688.187 156.059C688.187 151.213 687.211 146.966 685.261 143.316C683.373 139.667 680.73 136.866 677.332 134.916C673.934 132.965 670.064 131.99 665.722 131.99C661.381 131.99 657.511 132.965 654.113 134.916C650.715 136.866 648.04 139.667 646.09 143.316C644.202 146.966 643.258 151.213 643.258 156.059C643.258 160.904 644.202 165.183 646.09 168.895C648.04 172.545 650.715 175.377 654.113 177.39C657.511 179.341 661.381 180.316 665.722 180.316Z" fill="#6887DF"/>
<path d="M768.433 189H757.673L725.298 140.013V189H714.538V123.306H725.298L757.673 172.199V123.306H768.433V189Z" fill="#6887DF"/>
<path d="M808.898 189.661C804.493 189.661 800.529 188.906 797.005 187.395C793.481 185.822 790.712 183.62 788.699 180.788C786.685 177.957 785.678 174.653 785.678 170.878H797.194C797.445 173.709 798.546 176.037 800.497 177.862C802.511 179.687 805.311 180.599 808.898 180.599C812.61 180.599 815.505 179.719 817.581 177.957C819.658 176.132 820.696 173.804 820.696 170.972C820.696 168.77 820.035 166.976 818.714 165.592C817.455 164.207 815.851 163.138 813.9 162.383C812.012 161.628 809.37 160.81 805.972 159.929C801.693 158.796 798.2 157.663 795.495 156.531C792.852 155.335 790.586 153.51 788.699 151.056C786.811 148.602 785.867 145.33 785.867 141.24C785.867 137.464 786.811 134.161 788.699 131.329C790.586 128.497 793.229 126.326 796.627 124.816C800.025 123.306 803.958 122.551 808.426 122.551C814.781 122.551 819.972 124.156 824 127.365C828.09 130.511 830.355 134.853 830.796 140.39H818.903C818.714 137.999 817.581 135.954 815.505 134.255C813.428 132.556 810.691 131.707 807.293 131.707C804.21 131.707 801.693 132.493 799.742 134.066C797.791 135.639 796.816 137.905 796.816 140.862C796.816 142.876 797.414 144.543 798.609 145.865C799.868 147.123 801.441 148.13 803.329 148.885C805.217 149.64 807.796 150.458 811.069 151.339C815.41 152.535 818.934 153.73 821.64 154.926C824.409 156.122 826.737 157.978 828.625 160.495C830.575 162.949 831.551 166.253 831.551 170.406C831.551 173.741 830.638 176.887 828.813 179.844C827.052 182.802 824.44 185.193 820.979 187.018C817.581 188.78 813.554 189.661 808.898 189.661Z" fill="#6887DF"/>
<path d="M859.633 123.4V165.214C859.633 170.185 860.922 173.929 863.502 176.446C866.145 178.963 869.795 180.222 874.451 180.222C879.171 180.222 882.82 178.963 885.4 176.446C888.043 173.929 889.365 170.185 889.365 165.214V123.4H900.125V165.025C900.125 170.374 898.961 174.905 896.633 178.617C894.304 182.33 891.19 185.099 887.288 186.923C883.387 188.748 879.076 189.661 874.357 189.661C869.638 189.661 865.327 188.748 861.426 186.923C857.587 185.099 854.536 182.33 852.27 178.617C850.005 174.905 848.872 170.374 848.872 165.025V123.4H859.633Z" fill="#6887DF"/>
<path d="M929.614 180.316H951.796V189H918.854V123.4H929.614V180.316Z" fill="#6887DF"/>
<path d="M1007.89 123.4V132.179H990.432V189H979.672V132.179H962.116V123.4H1007.89Z" fill="#6887DF"/>
<path d="M1034.27 123.4V189H1023.51V123.4H1034.27Z" fill="#6887DF"/>
<path d="M1107.01 189H1096.25L1063.88 140.013V189H1053.12V123.306H1063.88L1096.25 172.199V123.306H1107.01V189Z" fill="#6887DF"/>
<path d="M1173.34 142.278C1171.64 139.006 1169.28 136.552 1166.26 134.916C1163.24 133.217 1159.75 132.367 1155.78 132.367C1151.44 132.367 1147.57 133.343 1144.17 135.293C1140.78 137.244 1138.1 140.013 1136.15 143.599C1134.26 147.186 1133.32 151.339 1133.32 156.059C1133.32 160.778 1134.26 164.963 1136.15 168.612C1138.1 172.199 1140.78 174.968 1144.17 176.918C1147.57 178.869 1151.44 179.844 1155.78 179.844C1161.64 179.844 1166.39 178.208 1170.04 174.936C1173.69 171.664 1175.92 167.228 1176.74 161.628H1152.1V153.038H1188.25V161.439C1187.56 166.536 1185.74 171.224 1182.78 175.503C1179.88 179.781 1176.08 183.211 1171.36 185.791C1166.7 188.308 1161.51 189.566 1155.78 189.566C1149.62 189.566 1143.98 188.15 1138.89 185.319C1133.79 182.424 1129.73 178.429 1126.71 173.332C1123.75 168.235 1122.28 162.477 1122.28 156.059C1122.28 149.64 1123.75 143.883 1126.71 138.786C1129.73 133.689 1133.79 129.724 1138.89 126.893C1144.05 123.998 1149.68 122.551 1155.78 122.551C1162.77 122.551 1168.97 124.281 1174.38 127.742C1179.85 131.14 1183.82 135.986 1186.27 142.278H1173.34Z" fill="#6887DF"/>
<path d="M1207.93 189.661C1205.98 189.661 1204.34 189 1203.02 187.679C1201.7 186.357 1201.04 184.721 1201.04 182.77C1201.04 180.82 1201.7 179.184 1203.02 177.862C1204.34 176.541 1205.98 175.88 1207.93 175.88C1209.81 175.88 1211.42 176.541 1212.74 177.862C1214.06 179.184 1214.72 180.82 1214.72 182.77C1214.72 184.721 1214.06 186.357 1212.74 187.679C1211.42 189 1209.81 189.661 1207.93 189.661Z" fill="#222F62"/>
<path d="M1227.48 162.76C1227.48 157.537 1228.55 152.912 1230.69 148.885C1232.9 144.858 1235.85 141.743 1239.57 139.541C1243.34 137.275 1247.49 136.143 1252.03 136.143C1256.12 136.143 1259.67 136.961 1262.69 138.597C1265.77 140.17 1268.23 142.152 1270.05 144.543V136.992H1280.91V189H1270.05V181.26C1268.23 183.714 1265.74 185.759 1262.6 187.395C1259.45 189.031 1255.86 189.849 1251.84 189.849C1247.37 189.849 1243.28 188.717 1239.57 186.452C1235.85 184.123 1232.9 180.914 1230.69 176.824C1228.55 172.671 1227.48 167.983 1227.48 162.76ZM1270.05 162.949C1270.05 159.362 1269.3 156.247 1267.79 153.605C1266.34 150.962 1264.42 148.948 1262.03 147.564C1259.64 146.179 1257.06 145.487 1254.29 145.487C1251.52 145.487 1248.94 146.179 1246.55 147.564C1244.16 148.885 1242.21 150.867 1240.7 153.51C1239.25 156.09 1238.53 159.173 1238.53 162.76C1238.53 166.347 1239.25 169.493 1240.7 172.199C1242.21 174.905 1244.16 176.981 1246.55 178.429C1249.01 179.813 1251.58 180.505 1254.29 180.505C1257.06 180.505 1259.64 179.813 1262.03 178.429C1264.42 177.044 1266.34 175.031 1267.79 172.388C1269.3 169.682 1270.05 166.536 1270.05 162.949Z" fill="#222F62"/>
<path d="M1305.24 130.102C1303.28 130.102 1301.65 129.441 1300.33 128.12C1299.01 126.798 1298.34 125.162 1298.34 123.212C1298.34 121.261 1299.01 119.625 1300.33 118.304C1301.65 116.982 1303.28 116.321 1305.24 116.321C1307.12 116.321 1308.73 116.982 1310.05 118.304C1311.37 119.625 1312.03 121.261 1312.03 123.212C1312.03 125.162 1311.37 126.798 1310.05 128.12C1308.73 129.441 1307.12 130.102 1305.24 130.102ZM1310.52 136.992V189H1299.76V136.992H1310.52Z" fill="#222F62"/>
<path d="M106.89 46.7075L2.96 168.878C-3.84 176.878 1.84 189.177 12.34 189.177H137.79C141.8 189.177 142.17 183.298 138.19 182.798L61.48 173.068C57.77 172.598 55.6 168.637 57.2 165.257L111.89 49.9375C113.39 46.7675 109.17 44.0375 106.89 46.7075Z" fill="#222F62"/>
<path d="M127.52 0.6975L135.01 20.9375L155.25 28.4275C156.18 28.7675 156.18 30.0875 155.25 30.4275L135.01 37.9175L127.52 58.1575C127.18 59.0875 125.86 59.0875 125.52 58.1575L118.03 37.9175L97.79 30.4275C96.86 30.0875 96.86 28.7675 97.79 28.4275L118.03 20.9375L125.51 0.6975C125.85 -0.2325 127.17 -0.2325 127.51 0.6975H127.52Z" fill="#6887DF"/>
</svg>
