<svg width="302" height="302" viewBox="0 0 302 302" fill="none" xmlns="http://www.w3.org/2000/svg">
<path d="M226.695 80.3921L194.067 151.355L226.695 222.318C228.205 225.568 224.827 228.946 221.577 227.436L150.614 194.808L79.6509 227.436C76.4009 228.946 73.0229 225.568 74.5327 222.318L107.161 151.355L74.5328 80.3922C73.0229 77.1421 76.4009 73.7642 79.6509 75.274L150.614 107.902L221.551 75.2484C224.801 73.7386 228.179 77.1166 226.669 80.3666L226.695 80.3921Z" fill="#6887DF" fill-opacity="0.5"/>
<path d="M154.233 47.3793L181.34 120.629L254.589 147.736C257.955 148.966 257.955 153.744 254.589 154.974L181.34 182.081L154.233 255.331C153.002 258.696 148.225 258.696 146.995 255.331L119.888 182.081L46.638 154.974C43.2723 153.744 43.2723 148.966 46.638 147.736L119.888 120.629L146.958 47.3793C148.189 44.0136 152.966 44.0136 154.197 47.3793H154.233Z" fill="#6887DF"/>
</svg>
