<svg width="303" height="302" viewBox="0 0 303 302" fill="none" xmlns="http://www.w3.org/2000/svg">
<path d="M227.581 80.3921L194.953 151.355L227.581 222.318C229.091 225.568 225.713 228.946 222.463 227.436L151.5 194.808L80.5371 227.436C77.2871 228.946 73.9091 225.568 75.419 222.318L108.047 151.355L75.419 80.3922C73.9092 77.1421 77.2871 73.7642 80.5371 75.274L151.5 107.902L222.437 75.2484C225.687 73.7386 229.065 77.1166 227.555 80.3666L227.581 80.3921Z" fill="#222F62"/>
<path d="M155.119 47.3793L182.226 120.629L255.476 147.736C258.841 148.966 258.841 153.744 255.476 154.974L182.226 182.081L155.119 255.331C153.889 258.696 149.111 258.696 147.881 255.331L120.774 182.081L47.5243 154.974C44.1586 153.744 44.1586 148.966 47.5243 147.736L120.774 120.629L147.845 47.3793C149.075 44.0136 153.852 44.0136 155.083 47.3793H155.119Z" fill="#6887DF"/>
</svg>
